ISO-10303-21;
HEADER;
/* Generated by software containing ST-Developer
 * from STEP Tools, Inc. (www.steptools.com) 
 */
/* OPTION: using custom renumber hook */

FILE_DESCRIPTION(
/* description */ ('STEP AP242 Edition 2',
'CAx-IF Rec.Pracs.---Representation and Presentation of Product Manufa
cturing Information (PMI)---4.0---2014-10-13',
'CAx-IF Rec.Pracs.---3D Tessellated Geometry---0.4---2014-09-14','2;1',
'CAx-IF Rec.Pracs.---User Defined Attributes---1.5---2016-08-15'),
/* implementation_level */ '2;1');

FILE_NAME(
/* name */ 'usbc - Part 1',
/* time_stamp */ '2026-06-20T01:46:09Z',
/* author */ (''),
/* organization */ (''),
/* preprocessor_version */ 'ST-DEVELOPER v20',
/* originating_system */ 'ONSHAPE BY PTC INC, 1.216',
/* authorisation */ '  ');

FILE_SCHEMA (('AP242_MANAGED_MODEL_BASED_3D_ENGINEERING_MIM_LF { 1 0 10303 442 3 1 4 }'));
ENDSEC;

DATA;
#10=SHAPE_REPRESENTATION_RELATIONSHIP('','',#370,#11);
#11=ADVANCED_BREP_SHAPE_REPRESENTATION('',(#368),#556);
#12=PLANE('',#375);
#13=PLANE('',#379);
#14=PLANE('',#383);
#15=PLANE('',#387);
#16=PLANE('',#388);
#17=PLANE('',#389);
#18=PLANE('',#394);
#19=PLANE('',#397);
#20=PLANE('',#398);
#21=LINE('',#484,#45);
#22=LINE('',#488,#46);
#23=LINE('',#490,#47);
#24=LINE('',#492,#48);
#25=LINE('',#494,#49);
#26=LINE('',#498,#50);
#27=LINE('',#502,#51);
#28=LINE('',#504,#52);
#29=LINE('',#506,#53);
#30=LINE('',#510,#54);
#31=LINE('',#514,#55);
#32=LINE('',#516,#56);
#33=LINE('',#518,#57);
#34=LINE('',#522,#58);
#35=LINE('',#526,#59);
#36=LINE('',#527,#60);
#37=LINE('',#533,#61);
#38=LINE('',#537,#62);
#39=LINE('',#539,#63);
#40=LINE('',#543,#64);
#41=LINE('',#545,#65);
#42=LINE('',#547,#66);
#43=LINE('',#549,#67);
#44=LINE('',#553,#68);
#45=VECTOR('',#405,1.);
#46=VECTOR('',#408,1.);
#47=VECTOR('',#411,1.);
#48=VECTOR('',#412,1.);
#49=VECTOR('',#413,1.);
#50=VECTOR('',#418,1.);
#51=VECTOR('',#423,1.);
#52=VECTOR('',#424,1.);
#53=VECTOR('',#425,1.);
#54=VECTOR('',#430,1.);
#55=VECTOR('',#435,1.);
#56=VECTOR('',#436,1.);
#57=VECTOR('',#437,1.);
#58=VECTOR('',#442,1.);
#59=VECTOR('',#447,1.);
#60=VECTOR('',#448,1.);
#61=VECTOR('',#455,1.);
#62=VECTOR('',#458,1.);
#63=VECTOR('',#461,1.);
#64=VECTOR('',#464,1.);
#65=VECTOR('',#467,1.);
#66=VECTOR('',#468,1.);
#67=VECTOR('',#471,1.);
#68=VECTOR('',#476,1.);
#69=ORIENTED_EDGE('',*,*,#141,.T.);
#70=ORIENTED_EDGE('',*,*,#142,.F.);
#71=ORIENTED_EDGE('',*,*,#143,.F.);
#72=ORIENTED_EDGE('',*,*,#144,.T.);
#73=ORIENTED_EDGE('',*,*,#145,.T.);
#74=ORIENTED_EDGE('',*,*,#146,.F.);
#75=ORIENTED_EDGE('',*,*,#147,.F.);
#76=ORIENTED_EDGE('',*,*,#142,.T.);
#77=ORIENTED_EDGE('',*,*,#148,.T.);
#78=ORIENTED_EDGE('',*,*,#149,.F.);
#79=ORIENTED_EDGE('',*,*,#150,.F.);
#80=ORIENTED_EDGE('',*,*,#146,.T.);
#81=ORIENTED_EDGE('',*,*,#151,.T.);
#82=ORIENTED_EDGE('',*,*,#152,.F.);
#83=ORIENTED_EDGE('',*,*,#153,.F.);
#84=ORIENTED_EDGE('',*,*,#149,.T.);
#85=ORIENTED_EDGE('',*,*,#154,.T.);
#86=ORIENTED_EDGE('',*,*,#155,.F.);
#87=ORIENTED_EDGE('',*,*,#156,.F.);
#88=ORIENTED_EDGE('',*,*,#152,.T.);
#89=ORIENTED_EDGE('',*,*,#157,.T.);
#90=ORIENTED_EDGE('',*,*,#158,.F.);
#91=ORIENTED_EDGE('',*,*,#159,.F.);
#92=ORIENTED_EDGE('',*,*,#155,.T.);
#93=ORIENTED_EDGE('',*,*,#160,.T.);
#94=ORIENTED_EDGE('',*,*,#161,.F.);
#95=ORIENTED_EDGE('',*,*,#162,.F.);
#96=ORIENTED_EDGE('',*,*,#158,.T.);
#97=ORIENTED_EDGE('',*,*,#163,.T.);
#98=ORIENTED_EDGE('',*,*,#144,.F.);
#99=ORIENTED_EDGE('',*,*,#164,.F.);
#100=ORIENTED_EDGE('',*,*,#161,.T.);
#101=ORIENTED_EDGE('',*,*,#143,.T.);
#102=ORIENTED_EDGE('',*,*,#147,.T.);
#103=ORIENTED_EDGE('',*,*,#150,.T.);
#104=ORIENTED_EDGE('',*,*,#153,.T.);
#105=ORIENTED_EDGE('',*,*,#156,.T.);
#106=ORIENTED_EDGE('',*,*,#159,.T.);
#107=ORIENTED_EDGE('',*,*,#162,.T.);
#108=ORIENTED_EDGE('',*,*,#164,.T.);
#109=ORIENTED_EDGE('',*,*,#165,.F.);
#110=ORIENTED_EDGE('',*,*,#166,.F.);
#111=ORIENTED_EDGE('',*,*,#167,.F.);
#112=ORIENTED_EDGE('',*,*,#168,.F.);
#113=ORIENTED_EDGE('',*,*,#141,.F.);
#114=ORIENTED_EDGE('',*,*,#163,.F.);
#115=ORIENTED_EDGE('',*,*,#160,.F.);
#116=ORIENTED_EDGE('',*,*,#157,.F.);
#117=ORIENTED_EDGE('',*,*,#154,.F.);
#118=ORIENTED_EDGE('',*,*,#151,.F.);
#119=ORIENTED_EDGE('',*,*,#148,.F.);
#120=ORIENTED_EDGE('',*,*,#145,.F.);
#121=ORIENTED_EDGE('',*,*,#165,.T.);
#122=ORIENTED_EDGE('',*,*,#169,.F.);
#123=ORIENTED_EDGE('',*,*,#170,.F.);
#124=ORIENTED_EDGE('',*,*,#171,.T.);
#125=ORIENTED_EDGE('',*,*,#168,.T.);
#126=ORIENTED_EDGE('',*,*,#172,.F.);
#127=ORIENTED_EDGE('',*,*,#173,.F.);
#128=ORIENTED_EDGE('',*,*,#169,.T.);
#129=ORIENTED_EDGE('',*,*,#167,.T.);
#130=ORIENTED_EDGE('',*,*,#174,.F.);
#131=ORIENTED_EDGE('',*,*,#175,.F.);
#132=ORIENTED_EDGE('',*,*,#172,.T.);
#133=ORIENTED_EDGE('',*,*,#166,.T.);
#134=ORIENTED_EDGE('',*,*,#171,.F.);
#135=ORIENTED_EDGE('',*,*,#176,.F.);
#136=ORIENTED_EDGE('',*,*,#174,.T.);
#137=ORIENTED_EDGE('',*,*,#170,.T.);
#138=ORIENTED_EDGE('',*,*,#173,.T.);
#139=ORIENTED_EDGE('',*,*,#175,.T.);
#140=ORIENTED_EDGE('',*,*,#176,.T.);
#141=EDGE_CURVE('',#177,#178,#201,.T.);
#142=EDGE_CURVE('',#179,#178,#21,.T.);
#143=EDGE_CURVE('',#180,#179,#202,.T.);
#144=EDGE_CURVE('',#180,#177,#22,.T.);
#145=EDGE_CURVE('',#178,#181,#23,.T.);
#146=EDGE_CURVE('',#182,#181,#24,.T.);
#147=EDGE_CURVE('',#179,#182,#25,.T.);
#148=EDGE_CURVE('',#181,#183,#203,.T.);
#149=EDGE_CURVE('',#184,#183,#26,.T.);
#150=EDGE_CURVE('',#182,#184,#204,.T.);
#151=EDGE_CURVE('',#183,#185,#27,.T.);
#152=EDGE_CURVE('',#186,#185,#28,.T.);
#153=EDGE_CURVE('',#184,#186,#29,.T.);
#154=EDGE_CURVE('',#185,#187,#205,.T.);
#155=EDGE_CURVE('',#188,#187,#30,.T.);
#156=EDGE_CURVE('',#186,#188,#206,.T.);
#157=EDGE_CURVE('',#187,#189,#31,.T.);
#158=EDGE_CURVE('',#190,#189,#32,.T.);
#159=EDGE_CURVE('',#188,#190,#33,.T.);
#160=EDGE_CURVE('',#189,#191,#207,.T.);
#161=EDGE_CURVE('',#192,#191,#34,.T.);
#162=EDGE_CURVE('',#190,#192,#208,.T.);
#163=EDGE_CURVE('',#191,#177,#35,.T.);
#164=EDGE_CURVE('',#192,#180,#36,.T.);
#165=EDGE_CURVE('',#193,#194,#209,.T.);
#166=EDGE_CURVE('',#195,#193,#37,.T.);
#167=EDGE_CURVE('',#196,#195,#210,.T.);
#168=EDGE_CURVE('',#194,#196,#38,.T.);
#169=EDGE_CURVE('',#197,#194,#39,.T.);
#170=EDGE_CURVE('',#198,#197,#211,.T.);
#171=EDGE_CURVE('',#198,#193,#40,.T.);
#172=EDGE_CURVE('',#199,#196,#41,.T.);
#173=EDGE_CURVE('',#197,#199,#42,.T.);
#174=EDGE_CURVE('',#200,#195,#43,.T.);
#175=EDGE_CURVE('',#199,#200,#212,.T.);
#176=EDGE_CURVE('',#200,#198,#44,.T.);
#177=VERTEX_POINT('',#482);
#178=VERTEX_POINT('',#483);
#179=VERTEX_POINT('',#485);
#180=VERTEX_POINT('',#487);
#181=VERTEX_POINT('',#491);
#182=VERTEX_POINT('',#493);
#183=VERTEX_POINT('',#497);
#184=VERTEX_POINT('',#499);
#185=VERTEX_POINT('',#503);
#186=VERTEX_POINT('',#505);
#187=VERTEX_POINT('',#509);
#188=VERTEX_POINT('',#511);
#189=VERTEX_POINT('',#515);
#190=VERTEX_POINT('',#517);
#191=VERTEX_POINT('',#521);
#192=VERTEX_POINT('',#523);
#193=VERTEX_POINT('',#531);
#194=VERTEX_POINT('',#532);
#195=VERTEX_POINT('',#534);
#196=VERTEX_POINT('',#536);
#197=VERTEX_POINT('',#540);
#198=VERTEX_POINT('',#542);
#199=VERTEX_POINT('',#546);
#200=VERTEX_POINT('',#550);
#201=CIRCLE('',#373,0.000707385024374419);
#202=CIRCLE('',#374,0.000707385024374419);
#203=CIRCLE('',#377,0.000707385024374419);
#204=CIRCLE('',#378,0.000707385024374419);
#205=CIRCLE('',#381,0.000707385024374419);
#206=CIRCLE('',#382,0.000707385024374419);
#207=CIRCLE('',#385,0.000707385024374419);
#208=CIRCLE('',#386,0.000707385024374419);
#209=CIRCLE('',#390,0.001325);
#210=CIRCLE('',#391,0.001325);
#211=CIRCLE('',#393,0.001325);
#212=CIRCLE('',#396,0.001325);
#213=EDGE_LOOP('',(#69,#70,#71,#72));
#214=EDGE_LOOP('',(#73,#74,#75,#76));
#215=EDGE_LOOP('',(#77,#78,#79,#80));
#216=EDGE_LOOP('',(#81,#82,#83,#84));
#217=EDGE_LOOP('',(#85,#86,#87,#88));
#218=EDGE_LOOP('',(#89,#90,#91,#92));
#219=EDGE_LOOP('',(#93,#94,#95,#96));
#220=EDGE_LOOP('',(#97,#98,#99,#100));
#221=EDGE_LOOP('',(#101,#102,#103,#104,#105,#106,#107,#108));
#222=EDGE_LOOP('',(#109,#110,#111,#112));
#223=EDGE_LOOP('',(#113,#114,#115,#116,#117,#118,#119,#120));
#224=EDGE_LOOP('',(#121,#122,#123,#124));
#225=EDGE_LOOP('',(#125,#126,#127,#128));
#226=EDGE_LOOP('',(#129,#130,#131,#132));
#227=EDGE_LOOP('',(#133,#134,#135,#136));
#228=EDGE_LOOP('',(#137,#138,#139,#140));
#229=FACE_BOUND('',#213,.T.);
#230=FACE_BOUND('',#214,.T.);
#231=FACE_BOUND('',#215,.T.);
#232=FACE_BOUND('',#216,.T.);
#233=FACE_BOUND('',#217,.T.);
#234=FACE_BOUND('',#218,.T.);
#235=FACE_BOUND('',#219,.T.);
#236=FACE_BOUND('',#220,.T.);
#237=FACE_BOUND('',#221,.T.);
#238=FACE_BOUND('',#222,.T.);
#239=FACE_BOUND('',#223,.T.);
#240=FACE_BOUND('',#224,.T.);
#241=FACE_BOUND('',#225,.T.);
#242=FACE_BOUND('',#226,.T.);
#243=FACE_BOUND('',#227,.T.);
#244=FACE_BOUND('',#228,.T.);
#245=CYLINDRICAL_SURFACE('',#372,0.000707385024374419);
#246=CYLINDRICAL_SURFACE('',#376,0.000707385024374419);
#247=CYLINDRICAL_SURFACE('',#380,0.000707385024374419);
#248=CYLINDRICAL_SURFACE('',#384,0.000707385024374419);
#249=CYLINDRICAL_SURFACE('',#392,0.001325);
#250=CYLINDRICAL_SURFACE('',#395,0.001325);
#251=OVER_RIDING_STYLED_ITEM('',(#282),#264,#280);
#252=OVER_RIDING_STYLED_ITEM('',(#283),#265,#280);
#253=OVER_RIDING_STYLED_ITEM('',(#284),#266,#280);
#254=OVER_RIDING_STYLED_ITEM('',(#285),#267,#280);
#255=OVER_RIDING_STYLED_ITEM('',(#286),#268,#280);
#256=OVER_RIDING_STYLED_ITEM('',(#287),#269,#280);
#257=OVER_RIDING_STYLED_ITEM('',(#288),#270,#280);
#258=OVER_RIDING_STYLED_ITEM('',(#289),#271,#280);
#259=OVER_RIDING_STYLED_ITEM('',(#290),#272,#280);
#260=OVER_RIDING_STYLED_ITEM('',(#291),#274,#280);
#261=OVER_RIDING_STYLED_ITEM('',(#292),#275,#280);
#262=OVER_RIDING_STYLED_ITEM('',(#293),#276,#280);
#263=OVER_RIDING_STYLED_ITEM('',(#294),#277,#280);
#264=ADVANCED_FACE('Face appearance 1',(#229),#245,.T.);
#265=ADVANCED_FACE('Face appearance 1',(#230),#12,.F.);
#266=ADVANCED_FACE('Face appearance 1',(#231),#246,.T.);
#267=ADVANCED_FACE('Face appearance 1',(#232),#13,.F.);
#268=ADVANCED_FACE('Face appearance 1',(#233),#247,.T.);
#269=ADVANCED_FACE('Face appearance 1',(#234),#14,.F.);
#270=ADVANCED_FACE('Face appearance 1',(#235),#248,.T.);
#271=ADVANCED_FACE('Face appearance 1',(#236),#15,.F.);
#272=ADVANCED_FACE('Face appearance 1',(#237),#16,.F.);
#273=ADVANCED_FACE('',(#238,#239),#17,.T.);
#274=ADVANCED_FACE('Face appearance 2',(#240),#249,.T.);
#275=ADVANCED_FACE('Face appearance 2',(#241),#18,.F.);
#276=ADVANCED_FACE('Face appearance 2',(#242),#250,.T.);
#277=ADVANCED_FACE('Face appearance 2',(#243),#19,.F.);
#278=ADVANCED_FACE('',(#244),#20,.F.);
#279=CLOSED_SHELL('',(#264,#265,#266,#267,#268,#269,#270,#271,#272,#273,
#274,#275,#276,#277,#278));
#280=STYLED_ITEM('',(#281),#368);
#281=PRESENTATION_STYLE_ASSIGNMENT((#295));
#282=PRESENTATION_STYLE_ASSIGNMENT((#296));
#283=PRESENTATION_STYLE_ASSIGNMENT((#297));
#284=PRESENTATION_STYLE_ASSIGNMENT((#298));
#285=PRESENTATION_STYLE_ASSIGNMENT((#299));
#286=PRESENTATION_STYLE_ASSIGNMENT((#300));
#287=PRESENTATION_STYLE_ASSIGNMENT((#301));
#288=PRESENTATION_STYLE_ASSIGNMENT((#302));
#289=PRESENTATION_STYLE_ASSIGNMENT((#303));
#290=PRESENTATION_STYLE_ASSIGNMENT((#304));
#291=PRESENTATION_STYLE_ASSIGNMENT((#305));
#292=PRESENTATION_STYLE_ASSIGNMENT((#306));
#293=PRESENTATION_STYLE_ASSIGNMENT((#307));
#294=PRESENTATION_STYLE_ASSIGNMENT((#308));
#295=SURFACE_STYLE_USAGE(.BOTH.,#309);
#296=SURFACE_STYLE_USAGE(.BOTH.,#310);
#297=SURFACE_STYLE_USAGE(.BOTH.,#311);
#298=SURFACE_STYLE_USAGE(.BOTH.,#312);
#299=SURFACE_STYLE_USAGE(.BOTH.,#313);
#300=SURFACE_STYLE_USAGE(.BOTH.,#314);
#301=SURFACE_STYLE_USAGE(.BOTH.,#315);
#302=SURFACE_STYLE_USAGE(.BOTH.,#316);
#303=SURFACE_STYLE_USAGE(.BOTH.,#317);
#304=SURFACE_STYLE_USAGE(.BOTH.,#318);
#305=SURFACE_STYLE_USAGE(.BOTH.,#319);
#306=SURFACE_STYLE_USAGE(.BOTH.,#320);
#307=SURFACE_STYLE_USAGE(.BOTH.,#321);
#308=SURFACE_STYLE_USAGE(.BOTH.,#322);
#309=SURFACE_SIDE_STYLE('',(#323));
#310=SURFACE_SIDE_STYLE('',(#324));
#311=SURFACE_SIDE_STYLE('',(#325));
#312=SURFACE_SIDE_STYLE('',(#326));
#313=SURFACE_SIDE_STYLE('',(#327));
#314=SURFACE_SIDE_STYLE('',(#328));
#315=SURFACE_SIDE_STYLE('',(#329));
#316=SURFACE_SIDE_STYLE('',(#330));
#317=SURFACE_SIDE_STYLE('',(#331));
#318=SURFACE_SIDE_STYLE('',(#332));
#319=SURFACE_SIDE_STYLE('',(#333));
#320=SURFACE_SIDE_STYLE('',(#334));
#321=SURFACE_SIDE_STYLE('',(#335));
#322=SURFACE_SIDE_STYLE('',(#336));
#323=SURFACE_STYLE_FILL_AREA(#337);
#324=SURFACE_STYLE_FILL_AREA(#338);
#325=SURFACE_STYLE_FILL_AREA(#339);
#326=SURFACE_STYLE_FILL_AREA(#340);
#327=SURFACE_STYLE_FILL_AREA(#341);
#328=SURFACE_STYLE_FILL_AREA(#342);
#329=SURFACE_STYLE_FILL_AREA(#343);
#330=SURFACE_STYLE_FILL_AREA(#344);
#331=SURFACE_STYLE_FILL_AREA(#345);
#332=SURFACE_STYLE_FILL_AREA(#346);
#333=SURFACE_STYLE_FILL_AREA(#347);
#334=SURFACE_STYLE_FILL_AREA(#348);
#335=SURFACE_STYLE_FILL_AREA(#349);
#336=SURFACE_STYLE_FILL_AREA(#350);
#337=FILL_AREA_STYLE('',(#351));
#338=FILL_AREA_STYLE('',(#352));
#339=FILL_AREA_STYLE('',(#353));
#340=FILL_AREA_STYLE('',(#354));
#341=FILL_AREA_STYLE('',(#355));
#342=FILL_AREA_STYLE('',(#356));
#343=FILL_AREA_STYLE('',(#357));
#344=FILL_AREA_STYLE('',(#358));
#345=FILL_AREA_STYLE('',(#359));
#346=FILL_AREA_STYLE('',(#360));
#347=FILL_AREA_STYLE('',(#361));
#348=FILL_AREA_STYLE('',(#362));
#349=FILL_AREA_STYLE('',(#363));
#350=FILL_AREA_STYLE('',(#364));
#351=FILL_AREA_STYLE_COLOUR('',#365);
#352=FILL_AREA_STYLE_COLOUR('',#366);
#353=FILL_AREA_STYLE_COLOUR('',#366);
#354=FILL_AREA_STYLE_COLOUR('',#366);
#355=FILL_AREA_STYLE_COLOUR('',#366);
#356=FILL_AREA_STYLE_COLOUR('',#366);
#357=FILL_AREA_STYLE_COLOUR('',#366);
#358=FILL_AREA_STYLE_COLOUR('',#366);
#359=FILL_AREA_STYLE_COLOUR('',#366);
#360=FILL_AREA_STYLE_COLOUR('',#366);
#361=FILL_AREA_STYLE_COLOUR('',#367);
#362=FILL_AREA_STYLE_COLOUR('',#367);
#363=FILL_AREA_STYLE_COLOUR('',#367);
#364=FILL_AREA_STYLE_COLOUR('',#367);
#365=COLOUR_RGB('',0.901960784313726,0.917647058823529,0.929411764705882);
#366=COLOUR_RGB('',0.713725490196078,0.76078431372549,0.8);
#367=COLOUR_RGB('',0.262745098039216,0.282352941176471,0.301960784313725);
#368=MANIFOLD_SOLID_BREP('Part 1',#279);
#369=SHAPE_DEFINITION_REPRESENTATION(#561,#370);
#370=SHAPE_REPRESENTATION('Part 1',(#371),#556);
#371=AXIS2_PLACEMENT_3D('',#479,#399,#400);
#372=AXIS2_PLACEMENT_3D('',#480,#401,#402);
#373=AXIS2_PLACEMENT_3D('',#481,#403,#404);
#374=AXIS2_PLACEMENT_3D('',#486,#406,#407);
#375=AXIS2_PLACEMENT_3D('',#489,#409,#410);
#376=AXIS2_PLACEMENT_3D('',#495,#414,#415);
#377=AXIS2_PLACEMENT_3D('',#496,#416,#417);
#378=AXIS2_PLACEMENT_3D('',#500,#419,#420);
#379=AXIS2_PLACEMENT_3D('',#501,#421,#422);
#380=AXIS2_PLACEMENT_3D('',#507,#426,#427);
#381=AXIS2_PLACEMENT_3D('',#508,#428,#429);
#382=AXIS2_PLACEMENT_3D('',#512,#431,#432);
#383=AXIS2_PLACEMENT_3D('',#513,#433,#434);
#384=AXIS2_PLACEMENT_3D('',#519,#438,#439);
#385=AXIS2_PLACEMENT_3D('',#520,#440,#441);
#386=AXIS2_PLACEMENT_3D('',#524,#443,#444);
#387=AXIS2_PLACEMENT_3D('',#525,#445,#446);
#388=AXIS2_PLACEMENT_3D('',#528,#449,#450);
#389=AXIS2_PLACEMENT_3D('',#529,#451,#452);
#390=AXIS2_PLACEMENT_3D('',#530,#453,#454);
#391=AXIS2_PLACEMENT_3D('',#535,#456,#457);
#392=AXIS2_PLACEMENT_3D('',#538,#459,#460);
#393=AXIS2_PLACEMENT_3D('',#541,#462,#463);
#394=AXIS2_PLACEMENT_3D('',#544,#465,#466);
#395=AXIS2_PLACEMENT_3D('',#548,#469,#470);
#396=AXIS2_PLACEMENT_3D('',#551,#472,#473);
#397=AXIS2_PLACEMENT_3D('',#552,#474,#475);
#398=AXIS2_PLACEMENT_3D('',#554,#477,#478);
#399=DIRECTION('',(0.,0.,1.));
#400=DIRECTION('',(1.,0.,0.));
#401=DIRECTION('',(0.,0.,-1.));
#402=DIRECTION('',(-1.,0.,0.));
#403=DIRECTION('',(0.,0.,1.));
#404=DIRECTION('',(-1.,0.,0.));
#405=DIRECTION('',(0.,0.,-1.));
#406=DIRECTION('',(0.,0.,1.));
#407=DIRECTION('',(-1.,0.,0.));
#408=DIRECTION('',(0.,0.,-1.));
#409=DIRECTION('',(0.,1.,0.));
#410=DIRECTION('',(0.,0.,1.));
#411=DIRECTION('',(1.,0.,0.));
#412=DIRECTION('',(0.,0.,-1.));
#413=DIRECTION('',(1.,0.,0.));
#414=DIRECTION('',(0.,0.,-1.));
#415=DIRECTION('',(-1.,0.,0.));
#416=DIRECTION('',(0.,0.,1.));
#417=DIRECTION('',(-1.,0.,0.));
#418=DIRECTION('',(0.,0.,-1.));
#419=DIRECTION('',(0.,0.,1.));
#420=DIRECTION('',(-1.,0.,0.));
#421=DIRECTION('',(-1.,0.,0.));
#422=DIRECTION('',(0.,0.,1.));
#423=DIRECTION('',(0.,1.,0.));
#424=DIRECTION('',(0.,0.,-1.));
#425=DIRECTION('',(0.,1.,0.));
#426=DIRECTION('',(0.,0.,-1.));
#427=DIRECTION('',(-1.,0.,0.));
#428=DIRECTION('',(0.,0.,1.));
#429=DIRECTION('',(-1.,0.,0.));
#430=DIRECTION('',(0.,0.,-1.));
#431=DIRECTION('',(0.,0.,1.));
#432=DIRECTION('',(-1.,0.,0.));
#433=DIRECTION('',(-9.20255253690935E-17,-1.,0.));
#434=DIRECTION('',(1.,-9.20255253690935E-17,0.));
#435=DIRECTION('',(-1.,9.20255253690935E-17,0.));
#436=DIRECTION('',(0.,0.,-1.));
#437=DIRECTION('',(-1.,9.20255253690935E-17,0.));
#438=DIRECTION('',(0.,0.,-1.));
#439=DIRECTION('',(-1.,0.,0.));
#440=DIRECTION('',(0.,0.,1.));
#441=DIRECTION('',(-1.,0.,0.));
#442=DIRECTION('',(0.,0.,-1.));
#443=DIRECTION('',(0.,0.,1.));
#444=DIRECTION('',(-1.,0.,0.));
#445=DIRECTION('',(1.,2.67687352591305E-16,0.));
#446=DIRECTION('',(-2.67687352591305E-16,1.,0.));
#447=DIRECTION('',(2.67687352591305E-16,-1.,0.));
#448=DIRECTION('',(2.67687352591305E-16,-1.,0.));
#449=DIRECTION('',(0.,0.,-1.));
#450=DIRECTION('',(-1.,0.,0.));
#451=DIRECTION('',(0.,0.,-1.));
#452=DIRECTION('',(-1.,0.,0.));
#453=DIRECTION('',(0.,0.,-1.));
#454=DIRECTION('',(1.,0.,0.));
#455=DIRECTION('',(1.,0.,0.));
#456=DIRECTION('',(0.,0.,-1.));
#457=DIRECTION('',(-1.,0.,0.));
#458=DIRECTION('',(-1.,0.,0.));
#459=DIRECTION('',(0.,0.,1.));
#460=DIRECTION('',(1.,0.,0.));
#461=DIRECTION('',(0.,0.,1.));
#462=DIRECTION('',(0.,0.,-1.));
#463=DIRECTION('',(1.,0.,0.));
#464=DIRECTION('',(0.,0.,1.));
#465=DIRECTION('',(0.,1.,0.));
#466=DIRECTION('',(0.,0.,1.));
#467=DIRECTION('',(0.,0.,1.));
#468=DIRECTION('',(-1.,0.,0.));
#469=DIRECTION('',(0.,0.,1.));
#470=DIRECTION('',(1.,0.,0.));
#471=DIRECTION('',(0.,0.,1.));
#472=DIRECTION('',(0.,0.,-1.));
#473=DIRECTION('',(-1.,0.,0.));
#474=DIRECTION('',(0.,-1.,0.));
#475=DIRECTION('',(0.,0.,-1.));
#476=DIRECTION('',(1.,0.,0.));
#477=DIRECTION('',(0.,0.,1.));
#478=DIRECTION('',(1.,0.,0.));
#479=CARTESIAN_POINT('',(0.,0.,0.));
#480=CARTESIAN_POINT('',(0.000707385024374419,2.26421327705193E-19,0.00638));
#481=CARTESIAN_POINT('',(0.000707385024374419,2.26421327705193E-19,0.));
#482=CARTESIAN_POINT('',(0.,0.,0.));
#483=CARTESIAN_POINT('',(0.000707385024374419,-0.000707385024374419,0.));
#484=CARTESIAN_POINT('',(0.000707385024374419,-0.000707385024374419,0.00638));
#485=CARTESIAN_POINT('',(0.000707385024374419,-0.000707385024374419,0.00638));
#486=CARTESIAN_POINT('',(0.000707385024374419,2.26421327705193E-19,0.00638));
#487=CARTESIAN_POINT('',(0.,0.,0.00638));
#488=CARTESIAN_POINT('',(0.,0.,0.00638));
#489=CARTESIAN_POINT('',(0.000707385024374419,-0.000707385024374419,0.00638));
#490=CARTESIAN_POINT('',(0.000707385024374419,-0.000707385024374419,0.));
#491=CARTESIAN_POINT('',(0.0101326149756256,-0.000707385024374419,0.));
#492=CARTESIAN_POINT('',(0.0101326149756256,-0.000707385024374419,0.00638));
#493=CARTESIAN_POINT('',(0.0101326149756256,-0.000707385024374419,0.00638));
#494=CARTESIAN_POINT('',(0.000707385024374419,-0.000707385024374419,0.00638));
#495=CARTESIAN_POINT('',(0.0101326149756256,-2.29908942826134E-21,0.00638));
#496=CARTESIAN_POINT('',(0.0101326149756256,-2.29908942826134E-21,0.));
#497=CARTESIAN_POINT('',(0.01084,0.,0.));
#498=CARTESIAN_POINT('',(0.01084,0.,0.00638));
#499=CARTESIAN_POINT('',(0.01084,0.,0.00638));
#500=CARTESIAN_POINT('',(0.0101326149756256,-2.29908942826134E-21,0.00638));
#501=CARTESIAN_POINT('',(0.01084,0.00364522995125116,0.00638));
#502=CARTESIAN_POINT('',(0.01084,0.00364522995125116,0.));
#503=CARTESIAN_POINT('',(0.01084,0.00364522995125116,0.));
#504=CARTESIAN_POINT('',(0.01084,0.00364522995125116,0.00638));
#505=CARTESIAN_POINT('',(0.01084,0.00364522995125116,0.00638));
#506=CARTESIAN_POINT('',(0.01084,0.00364522995125116,0.00638));
#507=CARTESIAN_POINT('',(0.0101326149756256,0.00364522995125116,0.00638));
#508=CARTESIAN_POINT('',(0.0101326149756256,0.00364522995125116,0.));
#509=CARTESIAN_POINT('',(0.0101326149756256,0.00435261497562558,0.));
#510=CARTESIAN_POINT('',(0.0101326149756256,0.00435261497562558,0.00638));
#511=CARTESIAN_POINT('',(0.0101326149756256,0.00435261497562558,0.00638));
#512=CARTESIAN_POINT('',(0.0101326149756256,0.00364522995125116,0.00638));
#513=CARTESIAN_POINT('',(0.000707385024374418,0.00435261497562558,0.00638));
#514=CARTESIAN_POINT('',(0.000707385024374418,0.00435261497562558,0.));
#515=CARTESIAN_POINT('',(0.000707385024374418,0.00435261497562558,0.));
#516=CARTESIAN_POINT('',(0.000707385024374418,0.00435261497562558,0.00638));
#517=CARTESIAN_POINT('',(0.000707385024374418,0.00435261497562558,0.00638));
#518=CARTESIAN_POINT('',(0.000707385024374418,0.00435261497562558,0.00638));
#519=CARTESIAN_POINT('',(0.000707385024374418,0.00364522995125116,0.00638));
#520=CARTESIAN_POINT('',(0.000707385024374418,0.00364522995125116,0.));
#521=CARTESIAN_POINT('',(-9.75781955236954E-19,0.00364522995125116,0.));
#522=CARTESIAN_POINT('',(-9.75781955236954E-19,0.00364522995125116,0.00638));
#523=CARTESIAN_POINT('',(-9.75781955236954E-19,0.00364522995125116,0.00638));
#524=CARTESIAN_POINT('',(0.000707385024374418,0.00364522995125116,0.00638));
#525=CARTESIAN_POINT('',(0.,0.,0.00638));
#526=CARTESIAN_POINT('',(0.,0.,0.));
#527=CARTESIAN_POINT('',(0.,0.,0.00638));
#528=CARTESIAN_POINT('',(0.000707385024374419,2.26421327705193E-19,0.00638));
#529=CARTESIAN_POINT('',(0.000707385024374419,2.26421327705193E-19,0.));
#530=CARTESIAN_POINT('',(0.008565,0.00182261497562558,0.));
#531=CARTESIAN_POINT('',(0.008565,0.00314761497562558,0.));
#532=CARTESIAN_POINT('',(0.008565,0.000497614975625581,0.));
#533=CARTESIAN_POINT('',(0.008565,0.00314761497562558,0.));
#534=CARTESIAN_POINT('',(0.002275,0.00314761497562558,0.));
#535=CARTESIAN_POINT('',(0.002275,0.00182261497562558,0.));
#536=CARTESIAN_POINT('',(0.002275,0.000497614975625581,0.));
#537=CARTESIAN_POINT('',(0.008565,0.000497614975625581,0.));
#538=CARTESIAN_POINT('',(0.008565,0.00182261497562558,-0.00145));
#539=CARTESIAN_POINT('',(0.008565,0.000497614975625581,-0.00145));
#540=CARTESIAN_POINT('',(0.008565,0.000497614975625581,-0.00145));
#541=CARTESIAN_POINT('',(0.008565,0.00182261497562558,-0.00145));
#542=CARTESIAN_POINT('',(0.008565,0.00314761497562558,-0.00145));
#543=CARTESIAN_POINT('',(0.008565,0.00314761497562558,-0.00145));
#544=CARTESIAN_POINT('',(0.008565,0.000497614975625581,-0.00145));
#545=CARTESIAN_POINT('',(0.002275,0.000497614975625581,-0.00145));
#546=CARTESIAN_POINT('',(0.002275,0.000497614975625581,-0.00145));
#547=CARTESIAN_POINT('',(0.008565,0.000497614975625581,-0.00145));
#548=CARTESIAN_POINT('',(0.002275,0.00182261497562558,-0.00145));
#549=CARTESIAN_POINT('',(0.002275,0.00314761497562558,-0.00145));
#550=CARTESIAN_POINT('',(0.002275,0.00314761497562558,-0.00145));
#551=CARTESIAN_POINT('',(0.002275,0.00182261497562558,-0.00145));
#552=CARTESIAN_POINT('',(0.008565,0.00314761497562558,-0.00145));
#553=CARTESIAN_POINT('',(0.008565,0.00314761497562558,-0.00145));
#554=CARTESIAN_POINT('',(0.008565,0.00182261497562558,-0.00145));
#555=MECHANICAL_DESIGN_GEOMETRIC_PRESENTATION_REPRESENTATION('',(#280,#251,
#252,#253,#254,#255,#256,#257,#258,#259,#260,#261,#262,#263),#556);
#556=(
GEOMETRIC_REPRESENTATION_CONTEXT(3)
GLOBAL_UNCERTAINTY_ASSIGNED_CONTEXT((#557))
GLOBAL_UNIT_ASSIGNED_CONTEXT((#560,#559,#558))
REPRESENTATION_CONTEXT('Part 1','TOP_LEVEL_ASSEMBLY_PART')
);
#557=UNCERTAINTY_MEASURE_WITH_UNIT(LENGTH_MEASURE(1.E-8),#560,
'DISTANCE_ACCURACY_VALUE','Maximum Tolerance applied to model');
#558=(
NAMED_UNIT(*)
SI_UNIT($,.STERADIAN.)
SOLID_ANGLE_UNIT()
);
#559=(
NAMED_UNIT(*)
PLANE_ANGLE_UNIT()
SI_UNIT($,.RADIAN.)
);
#560=(
LENGTH_UNIT()
NAMED_UNIT(*)
SI_UNIT($,.METRE.)
);
#561=PRODUCT_DEFINITION_SHAPE('','',#562);
#562=PRODUCT_DEFINITION('','',#564,#563);
#563=PRODUCT_DEFINITION_CONTEXT('',#570,'design');
#564=PRODUCT_DEFINITION_FORMATION_WITH_SPECIFIED_SOURCE('','',#566,
 .NOT_KNOWN.);
#565=PRODUCT_RELATED_PRODUCT_CATEGORY('','',(#566));
#566=PRODUCT('Part 1','Part 1','Part 1',(#568));
#567=PRODUCT_CATEGORY('','');
#568=PRODUCT_CONTEXT('',#570,'mechanical');
#569=APPLICATION_PROTOCOL_DEFINITION('international standard',
'ap242_managed_model_based_3d_engineering',2020,#570);
#570=APPLICATION_CONTEXT('managed model based 3d engineering');
ENDSEC;
END-ISO-10303-21;
